<svg data-v-0dd9719b="" version="1.0" xmlns="http://www.w3.org/2000/svg" xmlns:xlink="http://www.w3.org/1999/xlink" width="100%" height="100%" viewBox="0 0 340.000000 250.000000" preserveAspectRatio="xMidYMid meet" color-interpolation-filters="sRGB" style="margin: auto;"> <rect data-v-0dd9719b="" x="0" y="0" width="100%" height="100%" fill="#ffffff" fill-opacity="1" class="background"></rect> <rect data-v-0dd9719b="" x="0" y="0" width="100%" height="100%" fill="url(#watermark)" fill-opacity="1" class="watermarklayer"></rect> <g data-v-0dd9719b="" fill="#6b4797" class="icon-text-wrapper icon-svg-group iconsvg" transform="translate(79.19999694824219,79.9637451171875)"><g class="iconsvg-imagesvg" transform="translate(0,0)"><g><rect fill="#6b4797" fill-opacity="0" stroke-width="2" x="0" y="0" width="60" height="90.07250836923724" class="image-rect"></rect> <svg filter="url(#colors50183560)" x="0" y="0" width="60" height="90.07250836923724" filtersec="colorsf2156903855" class="image-svg-svg primary" style="overflow: visible;"><svg version="1.1" id="Layer_1" xmlns="http://www.w3.org/2000/svg" xmlns:xlink="http://www.w3.org/1999/xlink" x="0px" y="0px" viewBox="83.39199829101562 0 332.7580261230469 499.541015625" style="enable-background:new 0 0 499.541 499.541;" xml:space="preserve"><g> <g> <g> <path d="M321.984,287.552l-43.008,211.989c0.085-0.149,0.235-0.213,0.299-0.363l136.875-273.749L321.984,287.552z"></path> <polygon points="411.008,203.264 250.325,2.411 318.933,264 "></polygon> <polygon points="227.648,0 83.392,270.421 298.581,270.421 "></polygon> <polygon points="84.843,291.755 257.749,496.747 299.349,291.755 "></polygon> </g> </g></g></svg></svg> <defs><filter id="colors50183560"><feColorMatrix type="matrix" values="0 0 0 0 0.21875  0 0 0 0 0.1796875  0 0 0 0 0.45703125  0 0 0 1 0" class="icon-fecolormatrix"></feColorMatrix></filter> <filter id="colorsf2156903855"><feColorMatrix type="matrix" values="0 0 0 0 0.99609375  0 0 0 0 0.99609375  0 0 0 0 0.99609375  0 0 0 1 0" class="icon-fecolormatrix"></feColorMatrix></filter> <filter id="colorsb3526858595"><feColorMatrix type="matrix" values="0 0 0 0 0  0 0 0 0 0  0 0 0 0 0  0 0 0 1 0" class="icon-fecolormatrix"></feColorMatrix></filter></defs></g></g> <g transform="translate(67,18.706254959106445)"><g data-gra="path-name" fill-rule="" class="tp-name iconsvg-namesvg"><g transform="scale(1)"><g><path d="M35.23 5.66Q32.83 5.66 29.22 1.82 25.61-2.02 21.94-7.51 18.27-13 15.73-17.88L15.73-17.88 9.81 1.24Q9.17 3.31 7.35 3.9 5.53 4.49 2.79 4.49L2.79 4.49Q3.97 1.95 5.1-1.1 6.24-4.16 8.52-10.92L8.52-10.92Q14.69-28.99 18.72-40.04L18.72-40.04Q18.79-40.23 19.14-41.15 19.5-42.05 19.5-42.84L19.5-42.84Q19.5-44.07 18.2-44.07L18.2-44.07Q16.32-44.07 14.5-42.15 12.68-40.23 11.57-37.54 10.46-34.84 10.46-32.89L10.46-32.89Q10.46-31.39 11.12-29.9L11.12-29.9Q8.45-29.9 7.18-31.04 5.92-32.18 5.92-34.13L5.92-34.13Q5.92-36.92 8.19-39.88 10.46-42.84 13.71-44.82 16.96-46.8 19.63-46.8L19.63-46.8Q23.21-46.8 23.21-43.03L23.21-43.03Q23.21-41.8 22.75-40.43L22.75-40.43 17.94-24.83Q18.72-25.29 22.43-28.14L22.43-28.14Q27.95-32.44 32.73-37.34 37.51-42.25 40.63-47L40.63-47Q41.34-46.34 41.63-45.34 41.93-44.33 41.93-43.48L41.93-43.48Q41.93-39.07 34.61-32.92 27.3-26.78 17.94-20.8L17.94-20.8Q21.39-15.47 23.82-12.16 26.26-8.84 29.96-5.1 33.67-1.36 39.26 2.93L39.26 2.93Q38.68 4.03 37.51 4.84 36.34 5.66 35.23 5.66L35.23 5.66ZM51.61 5.66Q47.58 5.66 45.6 4.32 43.61 2.99 43.55 0.07L43.55 0.07Q43.55-0.58 44.27-0.58L44.27-0.58Q44.66-0.58 46.05-0.29 47.45 0 50.63 0L50.63 0Q58.05 0 64.06-2.05 70.07-4.09 73.52-7.41 76.96-10.72 76.96-14.43L76.96-14.43Q76.96-18.98 72.22-20.57 67.47-22.16 60.13-22.16L60.13-22.16 55.31-22.1Q54.34-18.79 53.59-15.99 52.84-13.2 52.26-11.12L52.26-11.12Q50.38-4.03 49.66-1.56L49.66-1.56Q47.71-1.56 46.28-2.6 44.85-3.64 44.85-5.13L44.85-5.13Q44.85-6.31 45.5-8.13L45.5-8.13 45.76-8.91 46.6-11.51Q53.82-34 58.95-43.94L58.95-43.94Q55.7-43.23 52.26-41.34L52.26-41.34Q51.94-41.21 51.35-40.92 50.77-40.63 50.5-40.63L50.5-40.63Q49.85-40.63 48.88-41.57 47.91-42.51 47.91-43.16L47.91-43.16Q52.39-44.98 55.93-45.89 59.47-46.8 64.28-46.8L64.28-46.8Q70.72-46.8 75.66-44.59 80.6-42.38 80.6-36.2L80.6-36.2Q80.6-31.2 76.67-28.24 72.73-25.29 67.02-23.92L67.02-23.92Q74.36-22.95 77.67-19.96 80.99-16.96 80.99-13.46L80.99-13.46Q80.99-7.54 76.08-3.19 71.17 1.17 64.25 3.41 57.33 5.66 51.61 5.66L51.61 5.66ZM55.96-24.57Q64.41-24.89 70.04-27.79 75.66-30.68 75.66-36.73L75.66-36.73Q75.66-44.52 63.44-44.52L63.44-44.52Q59.8-37.51 55.96-24.57L55.96-24.57ZM98.28 5.66Q94.31 5.66 90.93 4.32 87.55 2.99 85.47 0.29 83.39-2.41 83.39-6.24L83.39-6.24Q83.39-11.05 86.38-13.16 89.37-15.28 93.4-15.28L93.4-15.28Q91.32-13.13 90.25-10.79 89.18-8.45 89.18-6.24L89.18-6.24Q89.18-2.73 91.88-0.26 94.57 2.21 99.38 2.21L99.38 2.21Q102.44 2.21 105.2 1.2 107.96 0.2 109.69-1.82 111.41-3.83 111.41-6.57L111.41-6.57Q111.41-8.97 110.04-10.86 108.68-12.74 106.7-14.11 104.71-15.47 101.33-17.29L101.33-17.29Q97.76-19.24 95.55-20.73 93.34-22.23 91.84-24.41 90.35-26.59 90.35-29.45L90.35-29.45Q90.35-33.15 92.75-37.25 95.16-41.34 99.51-44.07 103.87-46.8 109.26-46.8L109.26-46.8Q117.39-46.8 117.39-39.98L117.39-39.98Q117.39-36.66 115.8-32.6 114.2-28.54 112.19-25.41L112.19-25.41Q109.33-26 109.33-28.73L109.33-28.73Q109.33-29.96 109.82-31.56 110.3-33.15 111.21-35.36L111.21-35.36Q112.13-37.83 112.58-39.26 113.03-40.69 113.03-41.86L113.03-41.86Q113.03-43.09 112.29-43.71 111.54-44.33 109.59-44.33L109.59-44.33Q105.69-44.33 102.44-42.12 99.19-39.91 97.27-36.76 95.35-33.61 95.35-30.94L95.35-30.94Q95.35-28.99 96.52-27.43 97.69-25.87 99.48-24.73 101.27-23.6 104.32-21.97L104.32-21.97Q108.16-19.89 110.47-18.33 112.77-16.77 114.43-14.3 116.09-11.83 116.09-8.38L116.09-8.38Q116.09-4.09 113.52-0.91 110.95 2.27 106.83 3.97 102.7 5.66 98.28 5.66L98.28 5.66Z" transform="translate(-2.7899999618530273, 47)"></path></g> <!----> <!----> <!----> <!----> <!----> <!----> <!----></g></g> <!----></g></g><defs v-gra="od"></defs></svg>